<svg width="48" height="48" viewBox="0 0 48 48" fill="none" xmlns="http://www.w3.org/2000/svg">
  <mask id="mask0_204_2838" style="mask-type:alpha" maskUnits="userSpaceOnUse" x="0" y="0" width="48" height="48">
    <path
      d="M14.9359 0.620155C15.4166 0.115866 16.125 -0.10197 16.806 0.0451396L35.4827 4.07997C37.0094 4.40979 37.5858 6.28412 36.5081 7.41475L23.325 21.2461C22.8443 21.7504 22.1359 21.9683 21.4549 21.8212L2.77814 17.7863C1.25141 17.4565 0.675083 15.5822 1.75273 14.4516L14.9359 0.620155Z"
      fill="white" fill-opacity="0.9" />
    <path
      d="M0.104471 24.0513C-0.387403 22.5684 0.934694 21.1194 2.45629 21.4737L20.3893 25.6491C21.0675 25.807 21.6148 26.3063 21.834 26.9673L27.6311 44.4435C28.1229 45.9264 26.8008 47.3754 25.2792 47.0211L7.34623 42.8457C6.66799 42.6878 6.12072 42.1885 5.90148 41.5275L0.104471 24.0513Z"
      fill="white" fill-opacity="0.8" />
    <path
      d="M25.1734 25.6123C24.9651 24.9389 25.1267 24.2056 25.5987 23.6821L38.4812 9.39325C39.5202 8.2408 41.4188 8.6591 41.8773 10.1415L47.5621 28.5212C47.7704 29.1946 47.6088 29.9279 47.1369 30.4514L34.2543 44.7402C33.2153 45.8926 31.3167 45.4743 30.8582 43.9919L25.1734 25.6123Z"
      fill="white" fill-opacity="0.8" />
  </mask>
  <g mask="url(#mask0_204_2838)">
    <path d="M48 0H0V47H48V0Z" fill="url(#paint0_linear_204_2838)" />
  </g>
  <defs>
    <linearGradient id="paint0_linear_204_2838" x1="-5.5" y1="22.09" x2="52.9949" y2="23.6856"
      gradientUnits="userSpaceOnUse">
      <stop stop-color="#1CAFEC" />
      <stop offset="0.497004" stop-color="#8CCAE4" />
      <stop offset="0.833333" stop-color="#E9F5FA" />
      <stop offset="1" stop-color="white" />
    </linearGradient>
  </defs>
</svg>