<?xml version="1.0" encoding="utf-8"?>
<!-- Generator: Adobe Illustrator 25.0.0, SVG Export Plug-In . SVG Version: 6.00 Build 0)  -->
<svg version="1.1" xmlns="http://www.w3.org/2000/svg" xmlns:xlink="http://www.w3.org/1999/xlink" x="0px" y="0px"
    viewBox="0 0 2000 2000" style="enable-background:new 0 0 2000 2000;" xml:space="preserve">
    <style type="text/css">
        .st0 {
            fill: url(#SVGID_1_);
        }

        .st1 {
            fill: url(#SVGID_2_);
        }

        .st2 {
            fill: url(#SVGID_3_);
        }

        .st3 {
            fill: url(#SVGID_4_);
        }
    </style>
    <path
        d="M0,896.6h111.2c2.9-25.9,7.2-51.5,12.3-76.8c11.7-57.3,29.3-113.9,52-167.7c22.4-53.1,50.1-104,82.4-152
	c32-47.5,68.8-92,109.3-132.5s85.1-77.3,132.5-109.3c47.7-32.3,98.9-60,152-82.4c53.9-22.7,110.4-40.3,167.7-52
	c25.3-5.1,50.9-9.3,76.8-12.3V0.1C424,48.6,48.3,424.1,0,896.6z M1888.5,1103.6c-2.9,25.9-7.2,51.5-12.3,76.8
	c-11.7,57.3-29.3,113.9-52,167.7c-22.4,53.1-50.1,104-82.4,152c-32,47.5-68.8,92-109.3,132.5c-40.5,40.5-85.1,77.3-132.5,109.3
	c-47.7,32.3-98.9,60-152,82.4c-53.9,22.7-110.4,40.3-167.7,52c-25.3,5.1-50.9,9.3-76.8,12.3v111.2c472.3-48.3,848-424,896.3-896.3
	H1888.5z M651.7,1824.3c-53.1-22.4-104-50.1-152-82.4c-47.5-32-92-68.8-132.5-109.3s-77.3-85.1-109.3-132.5
	c-32.3-47.7-60-98.9-82.4-152c-22.7-53.9-40.3-110.4-52-167.7c-5.1-25.3-9.3-50.9-12.3-76.8H0c48.3,472.3,424,848,896.3,896.3
	v-111.2c-25.9-2.9-51.5-7.2-76.8-12.3C762.1,1864.9,705.6,1847.3,651.7,1824.3z M1103.5,0.1v111.2c25.9,2.9,51.5,7.2,76.8,12.3
	c57.3,11.7,113.9,29.3,167.7,52c53.1,22.4,104,50.1,152,82.4c47.5,32,92,68.8,132.5,109.3c40.5,40.5,77.3,85.1,109.3,132.5
	c32.3,47.7,60,98.9,82.4,152c22.7,53.9,40.3,110.4,52,167.7c5.1,25.3,9.3,50.9,12.3,76.8H2000C1951.5,424.1,1576,48.6,1103.5,0.1z" />
    <g>
        <rect x="479.2" y="479" width="190.7" height="190.7" />
        <rect x="1264" y="479" width="257.3" height="257.3" />
        <polygon points="1521.3,1182.8 1521.3,1521.2 1521.3,1521.2 1182.9,1521.2 1182.9,1182.8 	" />
        <rect x="479.2" y="1409.9" width="110.9" height="110.9" />
        <g>
            <g>

                <linearGradient gradientUnits="userSpaceOnUse" x1="996.6667" y1="996.3167" x2="588.7035" y2="588.3537"
                    gradientTransform="matrix(1 0 0 -1 0 2000)">
                    <stop offset="0" style="stop-color:#000000;stop-opacity:0" />
                    <stop offset="1" style="stop-color:#000000" />
                </linearGradient>
                <polygon class="st0" points="1000.3,1007.3 486.1,1521.2 479.2,1521.2 479.2,1513.9 993.1,1000.1 			" />

                <linearGradient gradientUnits="userSpaceOnUse" x1="1003.8668" y1="1003.5165" x2="1262.7742"
                    y2="1262.4242" gradientTransform="matrix(1 0 0 -1 0 2000)">
                    <stop offset="1.761449e-02" style="stop-color:#000000;stop-opacity:0" />
                    <stop offset="1" style="stop-color:#000000" />
                </linearGradient>
                <polygon class="st1"
                    points="1521.3,479 1521.3,486.2 1270.9,736.3 1007.5,1000.1 1000.3,992.9 1264,729.4 1514.1,479 			" />
            </g>
            <g>

                <linearGradient gradientUnits="userSpaceOnUse" x1="994.403" y1="1005.7803" x2="668.5991" y2="1331.5844"
                    gradientTransform="matrix(1 0 0 -1 0 2000)">
                    <stop offset="0" style="stop-color:#000000;stop-opacity:0" />
                    <stop offset="1" style="stop-color:#000000" />
                </linearGradient>
                <polygon class="st2" points="1000.3,992.9 993.1,1000.1 479.2,486.2 479.2,479 486.1,479 			" />

                <linearGradient gradientUnits="userSpaceOnUse" x1="1002.756" y1="997.4275" x2="1188.9016" y2="811.2818"
                    gradientTransform="matrix(1 0 0 -1 0 2000)">
                    <stop offset="0" style="stop-color:#000000;stop-opacity:0" />
                    <stop offset="0.9809" style="stop-color:#000000" />
                </linearGradient>
                <polygon class="st3"
                    points="1521.3,1513.9 1521.3,1521.2 1521.3,1521.2 1514.1,1521.2 1000.3,1007.3 1007.5,1000.1 			" />
            </g>
        </g>
    </g>
</svg>