<svg xmlns="http://www.w3.org/2000/svg" width="25" height="25" viewBox="0 0 200 200">
    <g fill="#FFF" fill-rule="nonzero">
        <path
            d="M30.3 0c34.518 0 62.5 27.982 62.5 62.5v30.3H0V0h30.3Zm0 20H20v52.8h52.8V62.5c0-23.237-18.65-42.119-41.797-42.494L30.3 20ZM107.2 92.8V46.4c0-25.626 20.774-46.4 46.4-46.4C179.226 0 200 20.774 200 46.4c0 25.626-20.774 46.4-46.4 46.4h-46.4Zm20-20h26.4c14.58 0 26.4-11.82 26.4-26.4 0-14.58-11.82-26.4-26.4-26.4-14.58 0-26.4 11.82-26.4 26.4v26.4ZM93 107v41.5c0 28.443-23.057 51.5-51.5 51.5H0v-20h41.5c17.397 0 31.5-14.103 31.5-31.5V107h20ZM153.6 200c-25.626 0-46.4-20.774-46.4-46.4v-46.4h46.4c25.626 0 46.4 20.774 46.4 46.4 0 25.626-20.774 46.4-46.4 46.4Zm0-20c14.58 0 26.4-11.82 26.4-26.4 0-14.58-11.82-26.4-26.4-26.4h-26.4v26.4c0 14.435 11.584 26.163 25.963 26.396l.437.004Z" />
    </g>
</svg>