<svg xmlns="http://www.w3.org/2000/svg" width="32" height="25" fill="none" class="w-auto h-6 lg:h-[30px]">
    <path fill="url(#a)" fill-rule="evenodd"
        d="M25.44 5.3a.8.8 0 0 0 1.6 0V1.46a.8.8 0 0 0-1.6 0V5.3ZM18.4 9.46a.8.8 0 0 0 1.6 0V6.58a.8.8 0 0 0-1.6 0v2.88ZM9.44 21.3a.8.8 0 0 0 1.6 0v-3.84a.8.8 0 0 0-1.6 0v3.84Zm-6.88 2.4a.8.8 0 0 1-.8-.8v-2.24a.8.8 0 0 1 1.6 0v2.24a.8.8 0 0 1-.8.8Zm4.16.64a.8.8 0 0 1-.8-.8v-2.88a.8.8 0 0 1 1.6 0v2.88a.8.8 0 0 1-.8.8Zm6.24-5.92a.8.8 0 0 0 1.6 0v-2.24a.8.8 0 0 0-1.6 0v2.24ZM22.72 7.7a.8.8 0 0 1-.8-.8V4.02a.8.8 0 0 1 1.6 0V6.9a.8.8 0 0 1-.8.8Zm6.24-4.32a.8.8 0 0 0 1.6 0V1.46a.8.8 0 0 0-1.6 0v1.92Z"
        clip-rule="evenodd" />
    <path fill="#5BB1E9" fill-rule="evenodd"
        d="M.003 3.182a1.6 1.6 0 0 0 1.702 1.492c2.764-.181 9.511 1.226 13.006 8.683l.03.061.034.06c1.564 2.707 3.326 5.155 5.776 6.983 2.479 1.849 5.545 2.98 9.58 3.253a1.6 1.6 0 1 0 .217-3.193c-3.516-.238-5.97-1.197-7.883-2.625-1.927-1.437-3.421-3.434-4.886-5.961C13.385 3.062 5.229 1.235 1.495 1.48A1.6 1.6 0 0 0 .003 3.182Z"
        clip-rule="evenodd" />
    <defs>
        <linearGradient id="a" x1="-1.279" x2="28.974" y1="-3.66" y2="8.824" gradientUnits="userSpaceOnUse">
            <stop offset=".016" stop-color="#6EE5B3" />
            <stop offset=".43" stop-color="#68D8E2" />
            <stop offset="1" stop-color="#4475F6" />
        </linearGradient>
    </defs>
</svg>